# xmcd CD database file
#
# Track frame offsets:
#	150
#	32771
#	57306
#	92299
#	129862
#	162877
#	167692
#	196775
#	224386
#	256521
#
# Disc length: 3927 seconds
#
# Revision: 0
# Processed by: cddbd v1.5.1PL0 Copyright (c) Steve Scherf et al.
# Submitted via: CDex 1.51
#
DISCID=740f550a
DTITLE=Greg Chako  - Integration II
DYEAR=2001
DGENRE=Jazz
TTITLE0=Tokong Burung-Nazri's Place
TTITLE1=The Sweet One
TTITLE2=Smooth Ride
TTITLE3=French Island Fantasy
TTITLE4=Afro-Asian Chant
TTITLE5=Ipoh Girl
TTITLE6=Fine Aussie Weathered
TTITLE7=Ocean Blues
TTITLE8=Tokong Burung-Nazri's Place (alternate)
TTITLE9=The Hunny Lady
EXTD=YEAR: 2001
EXTT0=
EXTT1=
EXTT2=
EXTT3=
EXTT4=
EXTT5=
EXTT6=
EXTT7=
EXTT8=
EXTT9=
PLAYORDER=
